<svg width="42" height="42" viewBox="0 0 42 42" fill="none" xmlns="http://www.w3.org/2000/svg">
<g id="solar:alarm-bold">
<path id="Vector" fill-rule="evenodd" clip-rule="evenodd" d="M21 38.5C29.463 38.5 36.3248 31.703 36.3248 23.3187C36.3248 14.9362 29.4648 8.13924 21 8.13924C12.5353 8.13924 5.67529 14.9345 5.67529 23.3187C5.67529 31.703 12.5353 38.5 21 38.5ZM21 15.3072C21.7053 15.3072 22.2775 15.8742 22.2775 16.5725V22.7955L26.159 26.642C26.277 26.7591 26.3707 26.8984 26.4346 27.0519C26.4985 27.2054 26.5314 27.37 26.5314 27.5362C26.5314 27.7025 26.4985 27.8671 26.4346 28.0206C26.3707 28.1741 26.277 28.3134 26.159 28.4305C25.9184 28.6677 25.594 28.8008 25.256 28.8008C24.9181 28.8008 24.5937 28.6677 24.353 28.4305L20.097 24.213C19.9789 24.0963 19.8849 23.9573 19.8207 23.8041C19.7564 23.651 19.723 23.4866 19.7225 23.3205V16.5725C19.7225 15.8725 20.2948 15.3072 21 15.3072ZM14.42 4.09499C14.5085 4.23588 14.5683 4.39291 14.5958 4.55701C14.6233 4.72112 14.618 4.88904 14.5803 5.05109C14.5425 5.21314 14.473 5.36611 14.3759 5.50117C14.2787 5.63623 14.1557 5.75071 14.014 5.83799L7.20479 10.0555C6.91742 10.2336 6.57143 10.2912 6.24186 10.2158C5.91229 10.1405 5.62572 9.93825 5.44429 9.65299C5.35577 9.51209 5.29605 9.35506 5.26855 9.19096C5.24105 9.02686 5.24632 8.85893 5.28407 8.69688C5.32182 8.53483 5.39129 8.38186 5.48847 8.2468C5.58565 8.11174 5.70863 7.99727 5.85029 7.90999L12.6613 3.69249C12.9487 3.5144 13.2946 3.45678 13.6242 3.53213C13.9538 3.60748 14.2404 3.80972 14.4218 4.09499M27.58 4.09499C27.7614 3.8102 28.0477 3.6083 28.3768 3.53297C28.706 3.45764 29.0516 3.51495 29.3388 3.69249L36.1498 7.90999C36.2914 7.99727 36.4144 8.11174 36.5116 8.2468C36.6088 8.38186 36.6783 8.53483 36.716 8.69688C36.7537 8.85893 36.759 9.02686 36.7315 9.19096C36.704 9.35506 36.6443 9.51209 36.5558 9.65299C36.3744 9.93825 36.0878 10.1405 35.7582 10.2158C35.4286 10.2912 35.0826 10.2336 34.7953 10.0555L27.986 5.83799C27.8442 5.75085 27.7211 5.63648 27.6237 5.50148C27.5264 5.36649 27.4567 5.21354 27.4188 5.05148C27.3809 4.88942 27.3755 4.72145 27.4029 4.55728C27.4302 4.39311 27.4899 4.23599 27.5783 4.09499" fill="#008CA8"/>
</g>
</svg>
