<svg width="40" height="40" viewBox="0 0 40 40" fill="none" xmlns="http://www.w3.org/2000/svg">
<g id="ph:arrow-up">
<path id="Vector" d="M27.4148 24.2953C27.3008 24.3101 27.1849 24.3022 27.074 24.2721C26.963 24.2421 26.859 24.1904 26.768 24.1202C26.6769 24.0499 26.6007 23.9624 26.5435 23.8626C26.4863 23.7628 26.4494 23.6528 26.4347 23.5387L25.2836 14.5877L14.8111 28.1537C14.6693 28.3374 14.4603 28.4572 14.2302 28.4868C14 28.5165 13.7675 28.4534 13.5838 28.3116C13.4001 28.1698 13.2803 27.9609 13.2506 27.7307C13.221 27.5005 13.284 27.268 13.4259 27.0843L23.8983 13.5183L14.9475 14.671C14.7172 14.7006 14.4845 14.6375 14.3007 14.4957C14.1169 14.3538 13.997 14.1447 13.9674 13.9144C13.9378 13.6841 14.0008 13.4515 14.1427 13.2677C14.2846 13.0839 14.4937 12.964 14.724 12.9343L25.7698 11.5128C25.8839 11.4981 25.9997 11.506 26.1107 11.536C26.2217 11.5661 26.3257 11.6177 26.4167 11.688C26.5077 11.7582 26.584 11.8458 26.6412 11.9455C26.6983 12.0453 26.7353 12.1553 26.7499 12.2694L28.1714 23.3152C28.1861 23.4293 28.1782 23.5451 28.1482 23.6561C28.1181 23.7671 28.0665 23.8711 27.9962 23.9621C27.926 24.0531 27.8385 24.1294 27.7387 24.1866C27.6389 24.2438 27.5289 24.2807 27.4148 24.2953Z" fill="#008CA8"/>
</g>
</svg>
