<svg width="42" height="42" viewBox="0 0 42 42" fill="none" xmlns="http://www.w3.org/2000/svg">
<g id="mage:music-fill">
<path id="Vector" d="M36.435 11.3575V13.1075C36.4328 13.922 36.2411 14.7249 35.875 15.4525C35.5198 16.1864 34.9986 16.8275 34.3525 17.325C33.7072 17.8169 32.9596 18.1578 32.165 18.3225C31.8139 18.3925 31.458 18.4275 31.0975 18.4275C30.6414 18.4275 30.1922 18.375 29.75 18.27L22.33 16.17V30.555C22.3346 32.485 21.6731 34.3575 20.4571 35.8563C19.2411 37.3551 17.5451 38.3883 15.6556 38.7816C13.7661 39.1749 11.7987 38.904 10.0857 38.0149C8.3727 37.1257 7.01901 35.6726 6.25319 33.901C5.48738 32.1295 5.35636 30.1479 5.88225 28.2909C6.40815 26.4339 7.55874 24.8153 9.13975 23.7083C10.7208 22.6013 12.6353 22.0738 14.5602 22.2149C16.4851 22.3559 18.3023 23.1569 19.705 24.4825V4.30501C19.6855 4.18917 19.6855 4.07086 19.705 3.95501V3.81501C19.7898 3.62063 19.9197 3.44932 20.0841 3.31538C20.2485 3.18143 20.4426 3.08873 20.65 3.04501H21.42L32.445 6.17751C33.5696 6.48024 34.5616 7.14828 35.2649 8.07652C35.9682 9.00476 36.3429 10.1405 36.33 11.305L36.435 11.3575Z" fill="#008CA8"/>
</g>
</svg>
