<svg width="42" height="42" viewBox="0 0 42 42" fill="none" xmlns="http://www.w3.org/2000/svg">
<g id="mingcute:play-fill" clip-path="url(#clip0_70_36)">
<g id="Group">
<path id="Vector" fill-rule="evenodd" clip-rule="evenodd" d="M9.92078 8.32995C9.96804 7.9326 10.1074 7.55175 10.3276 7.21768C10.5479 6.88361 10.8431 6.60553 11.1897 6.40555C11.5363 6.20558 11.9248 6.08922 12.3242 6.06572C12.7237 6.04222 13.1231 6.11224 13.4908 6.2702C15.3493 7.0647 19.5143 8.95295 24.7993 12.0032C30.086 15.0552 33.8048 17.7205 35.42 18.9297C36.799 19.964 36.8025 22.015 35.4218 23.0527C33.8223 24.255 30.149 26.8852 24.7993 29.9757C19.4443 33.0662 15.3283 34.9317 13.4873 35.7157C11.9018 36.393 10.1273 35.3657 9.92078 33.656C9.67928 31.6575 9.22778 27.1197 9.22778 20.9912C9.22778 14.8662 9.67753 10.3302 9.92078 8.32995Z" fill="#008CA8"/>
</g>
</g>
<defs>
<clipPath id="clip0_70_36">
<rect width="42" height="42" fill="white"/>
</clipPath>
</defs>
</svg>
